<?xml version="1.0" encoding="utf-8"?>
<!-- Generator: Adobe Illustrator 27.2.0, SVG Export Plug-In . SVG Version: 6.00 Build 0)  -->
<svg version="1.1" id="Layer_1" xmlns="http://www.w3.org/2000/svg" xmlns:xlink="http://www.w3.org/1999/xlink" x="0px" y="0px"
	 viewBox="0 0 1920 800" style="enable-background:new 0 0 1920 800;" xml:space="preserve">
<style type="text/css">
	.st0{fill:#FF2F00;}
</style>
<rect x="894" y="196.5" class="st0" width="59.7" height="397.7"/>
<path class="st0" d="M1021.5,207.3c-23,0-39.1,15.9-39.1,38.6c0,23,16.1,39.1,39.1,39.1c22.9,0,39.6-16.4,39.6-39.1
	C1061.1,223.5,1044.5,207.3,1021.5,207.3z"/>
<rect x="992" y="314.5" class="st0" width="59.7" height="279.8"/>
<path class="st0" d="M1516.9,304.2c-37.6,0-68.4,11.5-91.9,34.3l-2.2-24h-55.2v279.8h59.7V437.7c0-46.4,32.4-78.9,78.9-78.9
	c35.1,0,56.8,23.7,56.8,62v173.5h60.2V416.7C1623.2,347.3,1582.4,304.2,1516.9,304.2z"/>
<rect x="1655.9" y="314.5" class="st0" width="59.7" height="279.8"/>
<path class="st0" d="M1686.2,284.9c22.9,0,39.6-16.4,39.6-39.1c0-22.4-16.7-38.6-39.6-38.6c-23,0-39.1,15.9-39.1,38.6
	C1647.2,268.9,1663.2,284.9,1686.2,284.9z"/>
<g>
	<path class="st0" d="M818.5,509.6c-14.6,23.4-44.9,38.8-77.3,38.8c-46.3,0-81.6-27.9-90.9-70.6h215.2l0.9-9.3
		c0.6-5.6,0.6-11.6,0.6-16.6c-1.1-87-57.5-147.7-137.1-147.7c-82.7,0-142.7,62-142.7,147.3c0,88.6,64.5,153,153.5,153
		c54.7,0,103.5-25.1,126.5-63.7L818.5,509.6z M729.4,360.9c39.7,0,66.1,22.4,73.7,61.9H651.2C661.2,384.7,690.8,360.9,729.4,360.9z"
		/>
</g>
<path class="st0" d="M1212.2,304.2c-61.4,0-114.3,32.2-128.8,75.8l53.1,24.1c10.1-25.4,42.8-43.8,74.2-43.8
	c39.8,0,65.5,16.9,65.5,43c0,5.5-4,8.8-11.9,9.7l-64.1,7.7c-104.2,12.7-126.1,58.9-126.1,95.4c0,52,45.4,88.3,110.4,88.3
	c38,0,70.7-13.1,93.2-36.5l2.5,26.3h55.2V409.5C1335.4,346.5,1285.9,304.2,1212.2,304.2z M1275.2,473.1c0,44.3-34.5,75.3-84,75.3
	c-33.8,0-57.3-13.5-57.3-32.7c0-7.9,0-32,73-41l68.4-8.3V473.1z"/>
<path class="st0" d="M543,594.1c14-37.6,21.8-75.7,21.8-113.9c0-75.2-56.5-123.1-110.1-127c-20.9-1.5-36,0.3-57.2,7.6
	c9.3-22.4,11.6-44.2,10.6-66c-3.2-69.9-71.5-108.4-124.6-108.4c-28.9,0-53.2,1.5-115.3,29.4h0v378.2h61.6v0L543,594.1L543,594.1z
	 M229.9,254.7c18.7-6.9,37.6-10.3,55.4-10.3c35.5,0,67.5,26.6,67.5,67.2c0,34.2-11.4,60.2-61,109.7l43.6,43.6
	c35.2-34.2,63.3-56,103-56c43.6,0,68.9,34.5,68.9,75.6c0,18.7-3.1,34.8-8.7,50.8h-0.2H229.9V254.7z"/>
</svg>
